<svg width="27" height="25" viewBox="0 0 27 25" fill="none" xmlns="http://www.w3.org/2000/svg">
<path d="M7.53188 6.32812V20.0729H3.97125C3.59128 20.0729 3.2267 19.9339 2.95697 19.6861C2.68724 19.4383 2.53422 19.1018 2.53125 18.75V8.76042M19.4681 6.32812V20.0729H23.0287C23.4087 20.0729 23.7733 19.9339 24.043 19.6861C24.3128 19.4383 24.4658 19.1018 24.4688 18.75V8.76042" fill="black"/>
<path d="M13.5 16.3806L24.4688 8.85457V6.97957C24.4677 6.60023 24.3532 6.22859 24.1378 5.9059C23.9224 5.58321 23.6147 5.32211 23.2487 5.1516C22.8827 4.9811 22.4729 4.90785 22.0647 4.94C21.6565 4.97215 21.2659 5.10845 20.9363 5.33374L13.5 10.4483L6.06375 5.33374C5.73415 5.10845 5.34355 4.97215 4.93534 4.94C4.52713 4.90785 4.11728 4.9811 3.75132 5.1516C3.38535 5.32211 3.07759 5.58321 2.86221 5.9059C2.64684 6.22859 2.53227 6.60023 2.53125 6.97957V8.85457L13.5 16.3806Z" fill="black"/>
</svg>
